<?xml version="1.0" encoding="utf-8"?>
<svg xmlns="http://www.w3.org/2000/svg" xmlns:xlink="http://www.w3.org/1999/xlink" width="600" height="400" viewBox="0 0 2400 1600">
<defs>
  <clipPath id="clip930">
    <rect x="0" y="0" width="2400" height="1600"/>
  </clipPath>
</defs>
<path clip-path="url(#clip930)" d="M0 1600 L2400 1600 L2400 0 L0 0  Z" fill="#ffffff" fill-rule="evenodd" fill-opacity="1"/>
<defs>
  <clipPath id="clip931">
    <rect x="480" y="0" width="1681" height="1600"/>
  </clipPath>
</defs>
<path clip-path="url(#clip930)" d="M193.936 1486.45 L2352.76 1486.45 L2352.76 47.2441 L193.936 47.2441  Z" fill="#ffffff" fill-rule="evenodd" fill-opacity="1"/>
<defs>
  <clipPath id="clip932">
    <rect x="193" y="47" width="2160" height="1440"/>
  </clipPath>
</defs>
<polyline clip-path="url(#clip932)" style="stroke:#000000; stroke-linecap:round; stroke-linejoin:round; stroke-width:2; stroke-opacity:0.1; fill:none" points="255.035,1486.45 255.035,47.2441 "/>
<polyline clip-path="url(#clip932)" style="stroke:#000000; stroke-linecap:round; stroke-linejoin:round; stroke-width:2; stroke-opacity:0.1; fill:none" points="660.208,1486.45 660.208,47.2441 "/>
<polyline clip-path="url(#clip932)" style="stroke:#000000; stroke-linecap:round; stroke-linejoin:round; stroke-width:2; stroke-opacity:0.1; fill:none" points="1065.38,1486.45 1065.38,47.2441 "/>
<polyline clip-path="url(#clip932)" style="stroke:#000000; stroke-linecap:round; stroke-linejoin:round; stroke-width:2; stroke-opacity:0.1; fill:none" points="1470.55,1486.45 1470.55,47.2441 "/>
<polyline clip-path="url(#clip932)" style="stroke:#000000; stroke-linecap:round; stroke-linejoin:round; stroke-width:2; stroke-opacity:0.1; fill:none" points="1875.73,1486.45 1875.73,47.2441 "/>
<polyline clip-path="url(#clip932)" style="stroke:#000000; stroke-linecap:round; stroke-linejoin:round; stroke-width:2; stroke-opacity:0.1; fill:none" points="2280.9,1486.45 2280.9,47.2441 "/>
<polyline clip-path="url(#clip932)" style="stroke:#000000; stroke-linecap:round; stroke-linejoin:round; stroke-width:2; stroke-opacity:0.1; fill:none" points="193.936,1445.8 2352.76,1445.8 "/>
<polyline clip-path="url(#clip932)" style="stroke:#000000; stroke-linecap:round; stroke-linejoin:round; stroke-width:2; stroke-opacity:0.1; fill:none" points="193.936,1106.34 2352.76,1106.34 "/>
<polyline clip-path="url(#clip932)" style="stroke:#000000; stroke-linecap:round; stroke-linejoin:round; stroke-width:2; stroke-opacity:0.1; fill:none" points="193.936,766.889 2352.76,766.889 "/>
<polyline clip-path="url(#clip932)" style="stroke:#000000; stroke-linecap:round; stroke-linejoin:round; stroke-width:2; stroke-opacity:0.1; fill:none" points="193.936,427.432 2352.76,427.432 "/>
<polyline clip-path="url(#clip932)" style="stroke:#000000; stroke-linecap:round; stroke-linejoin:round; stroke-width:2; stroke-opacity:0.1; fill:none" points="193.936,87.9763 2352.76,87.9763 "/>
<polyline clip-path="url(#clip930)" style="stroke:#000000; stroke-linecap:round; stroke-linejoin:round; stroke-width:4; stroke-opacity:1; fill:none" points="193.936,1486.45 2352.76,1486.45 "/>
<polyline clip-path="url(#clip930)" style="stroke:#000000; stroke-linecap:round; stroke-linejoin:round; stroke-width:4; stroke-opacity:1; fill:none" points="255.035,1486.45 255.035,1467.55 "/>
<polyline clip-path="url(#clip930)" style="stroke:#000000; stroke-linecap:round; stroke-linejoin:round; stroke-width:4; stroke-opacity:1; fill:none" points="660.208,1486.45 660.208,1467.55 "/>
<polyline clip-path="url(#clip930)" style="stroke:#000000; stroke-linecap:round; stroke-linejoin:round; stroke-width:4; stroke-opacity:1; fill:none" points="1065.38,1486.45 1065.38,1467.55 "/>
<polyline clip-path="url(#clip930)" style="stroke:#000000; stroke-linecap:round; stroke-linejoin:round; stroke-width:4; stroke-opacity:1; fill:none" points="1470.55,1486.45 1470.55,1467.55 "/>
<polyline clip-path="url(#clip930)" style="stroke:#000000; stroke-linecap:round; stroke-linejoin:round; stroke-width:4; stroke-opacity:1; fill:none" points="1875.73,1486.45 1875.73,1467.55 "/>
<polyline clip-path="url(#clip930)" style="stroke:#000000; stroke-linecap:round; stroke-linejoin:round; stroke-width:4; stroke-opacity:1; fill:none" points="2280.9,1486.45 2280.9,1467.55 "/>
<path clip-path="url(#clip930)" d="M255.035 1517.37 Q251.424 1517.37 249.595 1520.93 Q247.789 1524.47 247.789 1531.6 Q247.789 1538.71 249.595 1542.27 Q251.424 1545.82 255.035 1545.82 Q258.669 1545.82 260.474 1542.27 Q262.303 1538.71 262.303 1531.6 Q262.303 1524.47 260.474 1520.93 Q258.669 1517.37 255.035 1517.37 M255.035 1513.66 Q260.845 1513.66 263.9 1518.27 Q266.979 1522.85 266.979 1531.6 Q266.979 1540.33 263.9 1544.94 Q260.845 1549.52 255.035 1549.52 Q249.225 1549.52 246.146 1544.94 Q243.09 1540.33 243.09 1531.6 Q243.09 1522.85 246.146 1518.27 Q249.225 1513.66 255.035 1513.66 Z" fill="#000000" fill-rule="nonzero" fill-opacity="1" /><path clip-path="url(#clip930)" d="M650.486 1514.29 L668.842 1514.29 L668.842 1518.22 L654.768 1518.22 L654.768 1526.7 Q655.787 1526.35 656.805 1526.19 Q657.824 1526 658.842 1526 Q664.629 1526 668.009 1529.17 Q671.388 1532.34 671.388 1537.76 Q671.388 1543.34 667.916 1546.44 Q664.444 1549.52 658.125 1549.52 Q655.949 1549.52 653.68 1549.15 Q651.435 1548.78 649.027 1548.04 L649.027 1543.34 Q651.111 1544.47 653.333 1545.03 Q655.555 1545.58 658.032 1545.58 Q662.037 1545.58 664.375 1543.48 Q666.712 1541.37 666.712 1537.76 Q666.712 1534.15 664.375 1532.04 Q662.037 1529.94 658.032 1529.94 Q656.157 1529.94 654.282 1530.35 Q652.43 1530.77 650.486 1531.65 L650.486 1514.29 Z" fill="#000000" fill-rule="nonzero" fill-opacity="1" /><path clip-path="url(#clip930)" d="M1040.07 1544.91 L1047.71 1544.91 L1047.71 1518.55 L1039.4 1520.21 L1039.4 1515.95 L1047.66 1514.29 L1052.34 1514.29 L1052.34 1544.91 L1059.98 1544.91 L1059.98 1548.85 L1040.07 1548.85 L1040.07 1544.91 Z" fill="#000000" fill-rule="nonzero" fill-opacity="1" /><path clip-path="url(#clip930)" d="M1079.42 1517.37 Q1075.81 1517.37 1073.98 1520.93 Q1072.17 1524.47 1072.17 1531.6 Q1072.17 1538.71 1073.98 1542.27 Q1075.81 1545.82 1079.42 1545.82 Q1083.05 1545.82 1084.86 1542.27 Q1086.69 1538.71 1086.69 1531.6 Q1086.69 1524.47 1084.86 1520.93 Q1083.05 1517.37 1079.42 1517.37 M1079.42 1513.66 Q1085.23 1513.66 1088.29 1518.27 Q1091.36 1522.85 1091.36 1531.6 Q1091.36 1540.33 1088.29 1544.94 Q1085.23 1549.52 1079.42 1549.52 Q1073.61 1549.52 1070.53 1544.94 Q1067.48 1540.33 1067.48 1531.6 Q1067.48 1522.85 1070.53 1518.27 Q1073.61 1513.66 1079.42 1513.66 Z" fill="#000000" fill-rule="nonzero" fill-opacity="1" /><path clip-path="url(#clip930)" d="M1445.74 1544.91 L1453.38 1544.91 L1453.38 1518.55 L1445.07 1520.21 L1445.07 1515.95 L1453.33 1514.29 L1458.01 1514.29 L1458.01 1544.91 L1465.65 1544.91 L1465.65 1548.85 L1445.74 1548.85 L1445.74 1544.91 Z" fill="#000000" fill-rule="nonzero" fill-opacity="1" /><path clip-path="url(#clip930)" d="M1475.14 1514.29 L1493.49 1514.29 L1493.49 1518.22 L1479.42 1518.22 L1479.42 1526.7 Q1480.44 1526.35 1481.46 1526.19 Q1482.48 1526 1483.49 1526 Q1489.28 1526 1492.66 1529.17 Q1496.04 1532.34 1496.04 1537.76 Q1496.04 1543.34 1492.57 1546.44 Q1489.1 1549.52 1482.78 1549.52 Q1480.6 1549.52 1478.33 1549.15 Q1476.09 1548.78 1473.68 1548.04 L1473.68 1543.34 Q1475.76 1544.47 1477.98 1545.03 Q1480.21 1545.58 1482.68 1545.58 Q1486.69 1545.58 1489.03 1543.48 Q1491.36 1541.37 1491.36 1537.76 Q1491.36 1534.15 1489.03 1532.04 Q1486.69 1529.94 1482.68 1529.94 Q1480.81 1529.94 1478.93 1530.35 Q1477.08 1530.77 1475.14 1531.65 L1475.14 1514.29 Z" fill="#000000" fill-rule="nonzero" fill-opacity="1" /><path clip-path="url(#clip930)" d="M1854.5 1544.91 L1870.82 1544.91 L1870.82 1548.85 L1848.88 1548.85 L1848.88 1544.91 Q1851.54 1542.16 1856.12 1537.53 Q1860.73 1532.88 1861.91 1531.53 Q1864.15 1529.01 1865.03 1527.27 Q1865.94 1525.51 1865.94 1523.82 Q1865.94 1521.07 1863.99 1519.33 Q1862.07 1517.6 1858.97 1517.6 Q1856.77 1517.6 1854.32 1518.36 Q1851.88 1519.13 1849.11 1520.68 L1849.11 1515.95 Q1851.93 1514.82 1854.38 1514.24 Q1856.84 1513.66 1858.88 1513.66 Q1864.25 1513.66 1867.44 1516.35 Q1870.63 1519.03 1870.63 1523.52 Q1870.63 1525.65 1869.82 1527.57 Q1869.04 1529.47 1866.93 1532.07 Q1866.35 1532.74 1863.25 1535.95 Q1860.15 1539.15 1854.5 1544.91 Z" fill="#000000" fill-rule="nonzero" fill-opacity="1" /><path clip-path="url(#clip930)" d="M1890.63 1517.37 Q1887.02 1517.37 1885.19 1520.93 Q1883.39 1524.47 1883.39 1531.6 Q1883.39 1538.71 1885.19 1542.27 Q1887.02 1545.82 1890.63 1545.82 Q1894.27 1545.82 1896.07 1542.27 Q1897.9 1538.71 1897.9 1531.6 Q1897.9 1524.47 1896.07 1520.93 Q1894.27 1517.37 1890.63 1517.37 M1890.63 1513.66 Q1896.44 1513.66 1899.5 1518.27 Q1902.58 1522.85 1902.58 1531.6 Q1902.58 1540.33 1899.5 1544.94 Q1896.44 1549.52 1890.63 1549.52 Q1884.82 1549.52 1881.75 1544.94 Q1878.69 1540.33 1878.69 1531.6 Q1878.69 1522.85 1881.75 1518.27 Q1884.82 1513.66 1890.63 1513.66 Z" fill="#000000" fill-rule="nonzero" fill-opacity="1" /><path clip-path="url(#clip930)" d="M2260.17 1544.91 L2276.49 1544.91 L2276.49 1548.85 L2254.55 1548.85 L2254.55 1544.91 Q2257.21 1542.16 2261.79 1537.53 Q2266.4 1532.88 2267.58 1531.53 Q2269.82 1529.01 2270.7 1527.27 Q2271.61 1525.51 2271.61 1523.82 Q2271.61 1521.07 2269.66 1519.33 Q2267.74 1517.6 2264.64 1517.6 Q2262.44 1517.6 2259.99 1518.36 Q2257.56 1519.13 2254.78 1520.68 L2254.78 1515.95 Q2257.6 1514.82 2260.06 1514.24 Q2262.51 1513.66 2264.55 1513.66 Q2269.92 1513.66 2273.11 1516.35 Q2276.31 1519.03 2276.31 1523.52 Q2276.31 1525.65 2275.5 1527.57 Q2274.71 1529.47 2272.6 1532.07 Q2272.02 1532.74 2268.92 1535.95 Q2265.82 1539.15 2260.17 1544.91 Z" fill="#000000" fill-rule="nonzero" fill-opacity="1" /><path clip-path="url(#clip930)" d="M2286.35 1514.29 L2304.71 1514.29 L2304.71 1518.22 L2290.63 1518.22 L2290.63 1526.7 Q2291.65 1526.35 2292.67 1526.19 Q2293.69 1526 2294.71 1526 Q2300.5 1526 2303.88 1529.17 Q2307.25 1532.34 2307.25 1537.76 Q2307.25 1543.34 2303.78 1546.44 Q2300.31 1549.52 2293.99 1549.52 Q2291.81 1549.52 2289.55 1549.15 Q2287.3 1548.78 2284.89 1548.04 L2284.89 1543.34 Q2286.98 1544.47 2289.2 1545.03 Q2291.42 1545.58 2293.9 1545.58 Q2297.9 1545.58 2300.24 1543.48 Q2302.58 1541.37 2302.58 1537.76 Q2302.58 1534.15 2300.24 1532.04 Q2297.9 1529.94 2293.9 1529.94 Q2292.02 1529.94 2290.15 1530.35 Q2288.3 1530.77 2286.35 1531.65 L2286.35 1514.29 Z" fill="#000000" fill-rule="nonzero" fill-opacity="1" /><polyline clip-path="url(#clip930)" style="stroke:#000000; stroke-linecap:round; stroke-linejoin:round; stroke-width:4; stroke-opacity:1; fill:none" points="193.936,1486.45 193.936,47.2441 "/>
<polyline clip-path="url(#clip930)" style="stroke:#000000; stroke-linecap:round; stroke-linejoin:round; stroke-width:4; stroke-opacity:1; fill:none" points="193.936,1445.8 212.834,1445.8 "/>
<polyline clip-path="url(#clip930)" style="stroke:#000000; stroke-linecap:round; stroke-linejoin:round; stroke-width:4; stroke-opacity:1; fill:none" points="193.936,1106.34 212.834,1106.34 "/>
<polyline clip-path="url(#clip930)" style="stroke:#000000; stroke-linecap:round; stroke-linejoin:round; stroke-width:4; stroke-opacity:1; fill:none" points="193.936,766.889 212.834,766.889 "/>
<polyline clip-path="url(#clip930)" style="stroke:#000000; stroke-linecap:round; stroke-linejoin:round; stroke-width:4; stroke-opacity:1; fill:none" points="193.936,427.432 212.834,427.432 "/>
<polyline clip-path="url(#clip930)" style="stroke:#000000; stroke-linecap:round; stroke-linejoin:round; stroke-width:4; stroke-opacity:1; fill:none" points="193.936,87.9763 212.834,87.9763 "/>
<path clip-path="url(#clip930)" d="M50.9921 1446.25 L80.6679 1446.25 L80.6679 1450.19 L50.9921 1450.19 L50.9921 1446.25 Z" fill="#000000" fill-rule="nonzero" fill-opacity="1" /><path clip-path="url(#clip930)" d="M91.5706 1459.15 L99.2095 1459.15 L99.2095 1432.78 L90.8993 1434.45 L90.8993 1430.19 L99.1632 1428.52 L103.839 1428.52 L103.839 1459.15 L111.478 1459.15 L111.478 1463.08 L91.5706 1463.08 L91.5706 1459.15 Z" fill="#000000" fill-rule="nonzero" fill-opacity="1" /><path clip-path="url(#clip930)" d="M120.922 1457.2 L125.807 1457.2 L125.807 1463.08 L120.922 1463.08 L120.922 1457.2 Z" fill="#000000" fill-rule="nonzero" fill-opacity="1" /><path clip-path="url(#clip930)" d="M145.992 1431.6 Q142.381 1431.6 140.552 1435.16 Q138.746 1438.71 138.746 1445.84 Q138.746 1452.94 140.552 1456.51 Q142.381 1460.05 145.992 1460.05 Q149.626 1460.05 151.431 1456.51 Q153.26 1452.94 153.26 1445.84 Q153.26 1438.71 151.431 1435.16 Q149.626 1431.6 145.992 1431.6 M145.992 1427.9 Q151.802 1427.9 154.857 1432.5 Q157.936 1437.09 157.936 1445.84 Q157.936 1454.56 154.857 1459.17 Q151.802 1463.75 145.992 1463.75 Q140.181 1463.75 137.103 1459.17 Q134.047 1454.56 134.047 1445.84 Q134.047 1437.09 137.103 1432.5 Q140.181 1427.9 145.992 1427.9 Z" fill="#000000" fill-rule="nonzero" fill-opacity="1" /><path clip-path="url(#clip930)" d="M51.9875 1106.8 L81.6633 1106.8 L81.6633 1110.73 L51.9875 1110.73 L51.9875 1106.8 Z" fill="#000000" fill-rule="nonzero" fill-opacity="1" /><path clip-path="url(#clip930)" d="M101.756 1092.14 Q98.1447 1092.14 96.316 1095.71 Q94.5104 1099.25 94.5104 1106.38 Q94.5104 1113.49 96.316 1117.05 Q98.1447 1120.59 101.756 1120.59 Q105.39 1120.59 107.196 1117.05 Q109.024 1113.49 109.024 1106.38 Q109.024 1099.25 107.196 1095.71 Q105.39 1092.14 101.756 1092.14 M101.756 1088.44 Q107.566 1088.44 110.621 1093.05 Q113.7 1097.63 113.7 1106.38 Q113.7 1115.11 110.621 1119.71 Q107.566 1124.3 101.756 1124.3 Q95.9456 1124.3 92.8669 1119.71 Q89.8114 1115.11 89.8114 1106.38 Q89.8114 1097.63 92.8669 1093.05 Q95.9456 1088.44 101.756 1088.44 Z" fill="#000000" fill-rule="nonzero" fill-opacity="1" /><path clip-path="url(#clip930)" d="M121.918 1117.75 L126.802 1117.75 L126.802 1123.62 L121.918 1123.62 L121.918 1117.75 Z" fill="#000000" fill-rule="nonzero" fill-opacity="1" /><path clip-path="url(#clip930)" d="M137.033 1089.06 L155.39 1089.06 L155.39 1093 L141.316 1093 L141.316 1101.47 Q142.334 1101.13 143.353 1100.96 Q144.371 1100.78 145.39 1100.78 Q151.177 1100.78 154.556 1103.95 Q157.936 1107.12 157.936 1112.54 Q157.936 1118.12 154.464 1121.22 Q150.992 1124.3 144.672 1124.3 Q142.496 1124.3 140.228 1123.93 Q137.982 1123.56 135.575 1122.81 L135.575 1118.12 Q137.658 1119.25 139.881 1119.81 Q142.103 1120.36 144.58 1120.36 Q148.584 1120.36 150.922 1118.25 Q153.26 1116.15 153.26 1112.54 Q153.26 1108.93 150.922 1106.82 Q148.584 1104.71 144.58 1104.71 Q142.705 1104.71 140.83 1105.13 Q138.978 1105.55 137.033 1106.43 L137.033 1089.06 Z" fill="#000000" fill-rule="nonzero" fill-opacity="1" /><path clip-path="url(#clip930)" d="M100.76 752.687 Q97.1493 752.687 95.3206 756.252 Q93.515 759.794 93.515 766.923 Q93.515 774.03 95.3206 777.595 Q97.1493 781.136 100.76 781.136 Q104.395 781.136 106.2 777.595 Q108.029 774.03 108.029 766.923 Q108.029 759.794 106.2 756.252 Q104.395 752.687 100.76 752.687 M100.76 748.984 Q106.571 748.984 109.626 753.59 Q112.705 758.173 112.705 766.923 Q112.705 775.65 109.626 780.257 Q106.571 784.84 100.76 784.84 Q94.9502 784.84 91.8715 780.257 Q88.816 775.65 88.816 766.923 Q88.816 758.173 91.8715 753.59 Q94.9502 748.984 100.76 748.984 Z" fill="#000000" fill-rule="nonzero" fill-opacity="1" /><path clip-path="url(#clip930)" d="M120.922 778.289 L125.807 778.289 L125.807 784.169 L120.922 784.169 L120.922 778.289 Z" fill="#000000" fill-rule="nonzero" fill-opacity="1" /><path clip-path="url(#clip930)" d="M145.992 752.687 Q142.381 752.687 140.552 756.252 Q138.746 759.794 138.746 766.923 Q138.746 774.03 140.552 777.595 Q142.381 781.136 145.992 781.136 Q149.626 781.136 151.431 777.595 Q153.26 774.03 153.26 766.923 Q153.26 759.794 151.431 756.252 Q149.626 752.687 145.992 752.687 M145.992 748.984 Q151.802 748.984 154.857 753.59 Q157.936 758.173 157.936 766.923 Q157.936 775.65 154.857 780.257 Q151.802 784.84 145.992 784.84 Q140.181 784.84 137.103 780.257 Q134.047 775.65 134.047 766.923 Q134.047 758.173 137.103 753.59 Q140.181 748.984 145.992 748.984 Z" fill="#000000" fill-rule="nonzero" fill-opacity="1" /><path clip-path="url(#clip930)" d="M101.756 413.231 Q98.1447 413.231 96.316 416.796 Q94.5104 420.338 94.5104 427.467 Q94.5104 434.574 96.316 438.138 Q98.1447 441.68 101.756 441.68 Q105.39 441.68 107.196 438.138 Q109.024 434.574 109.024 427.467 Q109.024 420.338 107.196 416.796 Q105.39 413.231 101.756 413.231 M101.756 409.527 Q107.566 409.527 110.621 414.134 Q113.7 418.717 113.7 427.467 Q113.7 436.194 110.621 440.8 Q107.566 445.384 101.756 445.384 Q95.9456 445.384 92.8669 440.8 Q89.8114 436.194 89.8114 427.467 Q89.8114 418.717 92.8669 414.134 Q95.9456 409.527 101.756 409.527 Z" fill="#000000" fill-rule="nonzero" fill-opacity="1" /><path clip-path="url(#clip930)" d="M121.918 438.833 L126.802 438.833 L126.802 444.712 L121.918 444.712 L121.918 438.833 Z" fill="#000000" fill-rule="nonzero" fill-opacity="1" /><path clip-path="url(#clip930)" d="M137.033 410.152 L155.39 410.152 L155.39 414.088 L141.316 414.088 L141.316 422.56 Q142.334 422.213 143.353 422.051 Q144.371 421.865 145.39 421.865 Q151.177 421.865 154.556 425.037 Q157.936 428.208 157.936 433.625 Q157.936 439.203 154.464 442.305 Q150.992 445.384 144.672 445.384 Q142.496 445.384 140.228 445.013 Q137.982 444.643 135.575 443.902 L135.575 439.203 Q137.658 440.338 139.881 440.893 Q142.103 441.449 144.58 441.449 Q148.584 441.449 150.922 439.342 Q153.26 437.236 153.26 433.625 Q153.26 430.013 150.922 427.907 Q148.584 425.801 144.58 425.801 Q142.705 425.801 140.83 426.217 Q138.978 426.634 137.033 427.514 L137.033 410.152 Z" fill="#000000" fill-rule="nonzero" fill-opacity="1" /><path clip-path="url(#clip930)" d="M91.5706 101.321 L99.2095 101.321 L99.2095 74.9555 L90.8993 76.6222 L90.8993 72.3629 L99.1632 70.6963 L103.839 70.6963 L103.839 101.321 L111.478 101.321 L111.478 105.256 L91.5706 105.256 L91.5706 101.321 Z" fill="#000000" fill-rule="nonzero" fill-opacity="1" /><path clip-path="url(#clip930)" d="M120.922 99.3767 L125.807 99.3767 L125.807 105.256 L120.922 105.256 L120.922 99.3767 Z" fill="#000000" fill-rule="nonzero" fill-opacity="1" /><path clip-path="url(#clip930)" d="M145.992 73.775 Q142.381 73.775 140.552 77.3398 Q138.746 80.8814 138.746 88.011 Q138.746 95.1174 140.552 98.6822 Q142.381 102.224 145.992 102.224 Q149.626 102.224 151.431 98.6822 Q153.26 95.1174 153.26 88.011 Q153.26 80.8814 151.431 77.3398 Q149.626 73.775 145.992 73.775 M145.992 70.0713 Q151.802 70.0713 154.857 74.6777 Q157.936 79.261 157.936 88.011 Q157.936 96.7378 154.857 101.344 Q151.802 105.928 145.992 105.928 Q140.181 105.928 137.103 101.344 Q134.047 96.7378 134.047 88.011 Q134.047 79.261 137.103 74.6777 Q140.181 70.0713 145.992 70.0713 Z" fill="#000000" fill-rule="nonzero" fill-opacity="1" /><polyline clip-path="url(#clip932)" style="stroke:#009af9; stroke-linecap:round; stroke-linejoin:round; stroke-width:4; stroke-opacity:1; fill:none" points="255.035,766.889 275.607,596.381 296.179,436.804 316.751,298.385 337.322,190 357.894,118.594 378.466,88.7453 399.038,102.368 419.61,158.587 440.182,253.801 460.754,381.905 481.326,534.687 501.898,702.354 522.47,874.158 543.042,1039.09 563.614,1186.56 584.186,1307.14 604.758,1393.09 625.33,1438.89 645.902,1441.62 666.474,1401.09 687.046,1319.91 707.617,1203.29 728.189,1058.68 748.761,895.374 769.333,723.829 789.905,555.045 810.477,399.841 831.049,268.165 851.621,168.459 872.193,107.114 892.765,88.0617 913.337,112.524 933.909,178.933 954.481,283.032 975.053,418.147 995.625,575.617 1016.2,745.348 1036.77,916.46 1057.34,1077.98 1077.91,1219.57 1098.48,1332.13 1119.06,1408.46 1139.63,1443.67 1160.2,1435.49 1180.77,1384.45 1201.34,1293.82 1221.92,1169.42 1242.49,1019.21 1263.06,852.834 1283.63,680.944 1304.2,514.562 1324.78,364.356 1345.35,239.953 1365.92,149.328 1386.49,98.2905 1407.06,90.1116 1427.64,125.316 1448.21,201.647 1468.78,314.211 1489.35,455.793 1509.92,617.317 1530.5,788.429 1551.07,958.16 1571.64,1115.63 1592.21,1250.75 1612.78,1354.84 1633.35,1421.25 1653.93,1445.72 1674.5,1426.66 1695.07,1365.32 1715.64,1265.61 1736.21,1133.94 1756.79,978.732 1777.36,809.948 1797.93,638.404 1818.5,475.096 1839.07,330.492 1859.65,213.863 1880.22,132.684 1900.79,92.1594 1921.36,94.8866 1941.93,140.691 1962.51,226.636 1983.08,347.213 2003.65,494.692 2024.22,659.62 2044.79,831.423 2065.37,999.09 2085.94,1151.87 2106.51,1279.98 2127.08,1375.19 2147.65,1431.41 2168.23,1445.03 2188.8,1415.18 2209.37,1343.78 2229.94,1235.39 2250.51,1096.97 2271.09,937.396 2291.66,766.889 "/>
<polyline clip-path="url(#clip932)" style="stroke:#e26f46; stroke-linecap:round; stroke-linejoin:round; stroke-width:4; stroke-opacity:1; fill:none" points="255.035,87.9763 275.607,404.482 296.179,668.328 316.751,884.823 337.322,1058.89 357.894,1195.1 378.466,1297.67 399.038,1370.5 419.61,1417.18 440.182,1441.04 460.754,1445.11 481.326,1432.19 501.898,1404.83 522.47,1365.36 543.042,1315.91 563.614,1258.42 584.186,1194.62 604.758,1126.09 625.33,1054.26 645.902,980.398 666.474,905.629 687.046,830.961 707.617,757.279 728.189,685.357 748.761,615.866 769.333,549.383 789.905,486.399 810.477,427.322 831.049,372.488 851.621,322.164 872.193,276.556 892.765,235.813 913.337,200.033 933.909,169.266 954.481,143.521 975.053,122.77 995.625,106.949 1016.2,95.9662 1036.77,89.7008 1057.34,88.0096 1077.91,90.7292 1098.48,97.678 1119.06,108.66 1139.63,123.465 1160.2,141.875 1180.77,163.662 1201.34,188.591 1221.92,216.425 1242.49,246.921 1263.06,279.836 1283.63,314.928 1304.2,351.953 1324.78,390.673 1345.35,430.849 1365.92,472.251 1386.49,514.65 1407.06,557.825 1427.64,601.559 1448.21,645.645 1468.78,689.881 1489.35,734.075 1509.92,778.04 1530.5,821.601 1551.07,864.589 1571.64,906.846 1592.21,948.222 1612.78,988.575 1633.35,1027.78 1653.93,1065.7 1674.5,1102.24 1695.07,1137.28 1715.64,1170.74 1736.21,1202.52 1756.79,1232.55 1777.36,1260.77 1797.93,1287.1 1818.5,1311.51 1839.07,1333.94 1859.65,1354.37 1880.22,1372.76 1900.79,1389.1 1921.36,1403.36 1941.93,1415.55 1962.51,1425.66 1983.08,1433.71 2003.65,1439.7 2024.22,1443.64 2044.79,1445.58 2065.37,1445.53 2085.94,1443.53 2106.51,1439.61 2127.08,1433.83 2147.65,1426.22 2168.23,1416.84 2188.8,1405.74 2209.37,1392.97 2229.94,1378.61 2250.51,1362.71 2271.09,1345.33 2291.66,1326.55 "/>
<path clip-path="url(#clip930)" d="M2012.48 250.738 L2280.8 250.738 L2280.8 95.2176 L2012.48 95.2176  Z" fill="#ffffff" fill-rule="evenodd" fill-opacity="1"/>
<polyline clip-path="url(#clip930)" style="stroke:#000000; stroke-linecap:round; stroke-linejoin:round; stroke-width:4; stroke-opacity:1; fill:none" points="2012.48,250.738 2280.8,250.738 2280.8,95.2176 2012.48,95.2176 2012.48,250.738 "/>
<polyline clip-path="url(#clip930)" style="stroke:#009af9; stroke-linecap:round; stroke-linejoin:round; stroke-width:4; stroke-opacity:1; fill:none" points="2036.47,147.058 2180.39,147.058 "/>
<path clip-path="url(#clip930)" d="M2218.22 166.745 Q2216.42 171.375 2214.7 172.787 Q2212.99 174.199 2210.12 174.199 L2206.72 174.199 L2206.72 170.634 L2209.22 170.634 Q2210.98 170.634 2211.95 169.8 Q2212.92 168.967 2214.1 165.865 L2214.86 163.921 L2204.38 138.412 L2208.89 138.412 L2216.99 158.689 L2225.1 138.412 L2229.61 138.412 L2218.22 166.745 Z" fill="#000000" fill-rule="nonzero" fill-opacity="1" /><path clip-path="url(#clip930)" d="M2236.9 160.402 L2244.54 160.402 L2244.54 134.037 L2236.23 135.703 L2236.23 131.444 L2244.49 129.778 L2249.17 129.778 L2249.17 160.402 L2256.81 160.402 L2256.81 164.338 L2236.9 164.338 L2236.9 160.402 Z" fill="#000000" fill-rule="nonzero" fill-opacity="1" /><polyline clip-path="url(#clip930)" style="stroke:#e26f46; stroke-linecap:round; stroke-linejoin:round; stroke-width:4; stroke-opacity:1; fill:none" points="2036.47,198.898 2180.39,198.898 "/>
<path clip-path="url(#clip930)" d="M2218.22 218.585 Q2216.42 223.215 2214.7 224.627 Q2212.99 226.039 2210.12 226.039 L2206.72 226.039 L2206.72 222.474 L2209.22 222.474 Q2210.98 222.474 2211.95 221.64 Q2212.92 220.807 2214.1 217.705 L2214.86 215.761 L2204.38 190.252 L2208.89 190.252 L2216.99 210.529 L2225.1 190.252 L2229.61 190.252 L2218.22 218.585 Z" fill="#000000" fill-rule="nonzero" fill-opacity="1" /><path clip-path="url(#clip930)" d="M2240.12 212.242 L2256.44 212.242 L2256.44 216.178 L2234.49 216.178 L2234.49 212.242 Q2237.16 209.488 2241.74 204.858 Q2246.35 200.205 2247.53 198.863 Q2249.77 196.34 2250.65 194.604 Q2251.55 192.844 2251.55 191.155 Q2251.55 188.4 2249.61 186.664 Q2247.69 184.928 2244.59 184.928 Q2242.39 184.928 2239.93 185.692 Q2237.5 186.455 2234.73 188.006 L2234.73 183.284 Q2237.55 182.15 2240 181.571 Q2242.46 180.993 2244.49 180.993 Q2249.86 180.993 2253.06 183.678 Q2256.25 186.363 2256.25 190.854 Q2256.25 192.983 2255.44 194.905 Q2254.66 196.803 2252.55 199.395 Q2251.97 200.067 2248.87 203.284 Q2245.77 206.479 2240.12 212.242 Z" fill="#000000" fill-rule="nonzero" fill-opacity="1" /></svg>
